<svg version="1.1" viewBox="0.0 0.0 759.2309711286089 550.6640419947506" fill="none" stroke="none" stroke-linecap="square" stroke-miterlimit="10" xmlns:xlink="http://www.w3.org/1999/xlink" xmlns="http://www.w3.org/2000/svg"><clipPath id="p.0"><path d="m0 0l759.23096 0l0 550.66406l-759.23096 0l0 -550.66406z" clip-rule="nonzero"/></clipPath><g clip-path="url(#p.0)"><path fill="#000000" fill-opacity="0.0" d="m0 0l759.23096 0l0 550.66406l-759.23096 0z" fill-rule="evenodd"/><path fill="#000000" fill-opacity="0.0" d="m110.19449 175.37747l195.60846 0l94.62097 94.62097l0 258.89084l0 0l-384.8504 0l0 0l0 -258.89084z" fill-rule="evenodd"/><path stroke="#000000" stroke-width="8.0" stroke-linejoin="round" stroke-linecap="butt" d="m110.19449 175.37747l195.60846 0l94.62097 94.62097l0 258.89084l0 0l-384.8504 0l0 0l0 -258.89084z" fill-rule="evenodd"/><path fill="#000000" fill-opacity="0.0" d="m310.11572 297.01407l-204.30801 0l-90.27119 -90.27118l0 -191.65007l0 0l384.8504 0l0 0l0 191.65007z" fill-rule="evenodd"/><path stroke="#000000" stroke-width="8.0" stroke-linejoin="round" stroke-linecap="butt" d="m310.11572 297.01407l-204.30801 0l-90.27119 -90.27118l0 -191.65007l0 0l384.8504 0l0 0l0 191.65007z" fill-rule="evenodd"/><path fill="#ff6c00" d="m51.697277 88.71813l41.019535 0l0 49.92576l-6.836731 6.8367157l-34.182804 0z" fill-rule="evenodd"/><path fill="#cb5600" d="m85.88008 145.4806l1.3673477 -5.4693756l5.4693832 -1.3673401z" fill-rule="evenodd"/><path fill="#000000" fill-opacity="0.0" d="m85.88008 145.4806l1.3673477 -5.4693756l5.4693832 -1.3673401l-6.836731 6.8367157l-34.182804 0l0 -56.762474l41.019535 0l0 49.92576" fill-rule="evenodd"/><path stroke="#75787b" stroke-width="1.0" stroke-linejoin="round" stroke-linecap="butt" d="m85.88008 145.4806l1.3673477 -5.4693756l5.4693832 -1.3673401l-6.836731 6.8367157l-34.182804 0l0 -56.762474l41.019535 0l0 49.92576" fill-rule="evenodd"/><path fill="#ff6c00" d="m104.10751 88.71813l41.01953 0l0 49.92576l-6.8367157 6.8367157l-34.182816 0z" fill-rule="evenodd"/><path fill="#cb5600" d="m138.29033 145.4806l1.3673401 -5.4693756l5.4693756 -1.3673401z" fill-rule="evenodd"/><path fill="#000000" fill-opacity="0.0" d="m138.29033 145.4806l1.3673401 -5.4693756l5.4693756 -1.3673401l-6.8367157 6.8367157l-34.182816 0l0 -56.762474l41.01953 0l0 49.92576" fill-rule="evenodd"/><path stroke="#75787b" stroke-width="1.0" stroke-linejoin="round" stroke-linecap="butt" d="m138.29033 145.4806l1.3673401 -5.4693756l5.4693756 -1.3673401l-6.8367157 6.8367157l-34.182816 0l0 -56.762474l41.01953 0l0 49.92576" fill-rule="evenodd"/><path fill="#ff6c00" d="m156.51776 88.71813l41.01953 0l0 49.92576l-6.836731 6.8367157l-34.1828 0z" fill-rule="evenodd"/><path fill="#cb5600" d="m190.70056 145.4806l1.3673553 -5.4693756l5.4693756 -1.3673401z" fill-rule="evenodd"/><path fill="#000000" fill-opacity="0.0" d="m190.70056 145.4806l1.3673553 -5.4693756l5.4693756 -1.3673401l-6.836731 6.8367157l-34.1828 0l0 -56.762474l41.01953 0l0 49.92576" fill-rule="evenodd"/><path stroke="#75787b" stroke-width="1.0" stroke-linejoin="round" stroke-linecap="butt" d="m190.70056 145.4806l1.3673553 -5.4693756l5.4693756 -1.3673401l-6.836731 6.8367157l-34.1828 0l0 -56.762474l41.01953 0l0 49.92576" fill-rule="evenodd"/><path fill="#ffd500" d="m208.928 88.71813l41.01953 0l0 49.92576l-6.8367157 6.8367157l-34.182816 0z" fill-rule="evenodd"/><path fill="#cbaa00" d="m243.11081 145.4806l1.3673401 -5.4693756l5.4693756 -1.3673401z" fill-rule="evenodd"/><path fill="#000000" fill-opacity="0.0" d="m243.11081 145.4806l1.3673401 -5.4693756l5.4693756 -1.3673401l-6.8367157 6.8367157l-34.182816 0l0 -56.762474l41.01953 0l0 49.92576" fill-rule="evenodd"/><path stroke="#75787b" stroke-width="1.0" stroke-linejoin="round" stroke-linecap="butt" d="m243.11081 145.4806l1.3673401 -5.4693756l5.4693756 -1.3673401l-6.8367157 6.8367157l-34.182816 0l0 -56.762474l41.01953 0l0 49.92576" fill-rule="evenodd"/><path fill="#ffd500" d="m261.33823 88.71813l41.01953 0l0 49.92576l-6.8367004 6.8367157l-34.18283 0z" fill-rule="evenodd"/><path fill="#cbaa00" d="m295.52106 145.4806l1.3673401 -5.4693756l5.4693604 -1.3673401z" fill-rule="evenodd"/><path fill="#000000" fill-opacity="0.0" d="m295.52106 145.4806l1.3673401 -5.4693756l5.4693604 -1.3673401l-6.8367004 6.8367157l-34.18283 0l0 -56.762474l41.01953 0l0 49.92576" fill-rule="evenodd"/><path stroke="#75787b" stroke-width="1.0" stroke-linejoin="round" stroke-linecap="butt" d="m295.52106 145.4806l1.3673401 -5.4693756l5.4693604 -1.3673401l-6.8367004 6.8367157l-34.18283 0l0 -56.762474l41.01953 0l0 49.92576" fill-rule="evenodd"/><path fill="#ffd500" d="m313.74847 88.71813l41.01953 0l0 49.92576l-6.836731 6.8367157l-34.1828 0z" fill-rule="evenodd"/><path fill="#cbaa00" d="m347.93127 145.4806l1.3673401 -5.4693756l5.469391 -1.3673401z" fill-rule="evenodd"/><path fill="#000000" fill-opacity="0.0" d="m347.93127 145.4806l1.3673401 -5.4693756l5.469391 -1.3673401l-6.836731 6.8367157l-34.1828 0l0 -56.762474l41.01953 0l0 49.92576" fill-rule="evenodd"/><path stroke="#75787b" stroke-width="1.0" stroke-linejoin="round" stroke-linecap="butt" d="m347.93127 145.4806l1.3673401 -5.4693756l5.469391 -1.3673401l-6.836731 6.8367157l-34.1828 0l0 -56.762474l41.01953 0l0 49.92576" fill-rule="evenodd"/><path fill="#ffffff" d="m51.697277 336.22906l41.019535 0l0 49.92575l-6.836731 6.836731l-34.182804 0z" fill-rule="evenodd"/><path fill="#cbcbcb" d="m85.88008 392.99155l1.3673477 -5.469391l5.4693832 -1.3673401z" fill-rule="evenodd"/><path fill="#000000" fill-opacity="0.0" d="m85.88008 392.99155l1.3673477 -5.469391l5.4693832 -1.3673401l-6.836731 6.836731l-34.182804 0l0 -56.76248l41.019535 0l0 49.92575" fill-rule="evenodd"/><path stroke="#75787b" stroke-width="1.0" stroke-linejoin="round" stroke-linecap="butt" d="m85.88008 392.99155l1.3673477 -5.469391l5.4693832 -1.3673401l-6.836731 6.836731l-34.182804 0l0 -56.76248l41.019535 0l0 49.92575" fill-rule="evenodd"/><path fill="#ffffff" d="m104.10751 336.22906l41.01953 0l0 49.92575l-6.8367157 6.836731l-34.182816 0z" fill-rule="evenodd"/><path fill="#cbcbcb" d="m138.29033 392.99155l1.3673401 -5.469391l5.4693756 -1.3673401z" fill-rule="evenodd"/><path fill="#000000" fill-opacity="0.0" d="m138.29033 392.99155l1.3673401 -5.469391l5.4693756 -1.3673401l-6.8367157 6.836731l-34.182816 0l0 -56.76248l41.01953 0l0 49.92575" fill-rule="evenodd"/><path stroke="#75787b" stroke-width="1.0" stroke-linejoin="round" stroke-linecap="butt" d="m138.29033 392.99155l1.3673401 -5.469391l5.4693756 -1.3673401l-6.8367157 6.836731l-34.182816 0l0 -56.76248l41.01953 0l0 49.92575" fill-rule="evenodd"/><path fill="#ffffff" d="m156.51776 336.22906l41.01953 0l0 49.92575l-6.836731 6.836731l-34.1828 0z" fill-rule="evenodd"/><path fill="#cbcbcb" d="m190.70056 392.99155l1.3673553 -5.469391l5.4693756 -1.3673401z" fill-rule="evenodd"/><path fill="#000000" fill-opacity="0.0" d="m190.70056 392.99155l1.3673553 -5.469391l5.4693756 -1.3673401l-6.836731 6.836731l-34.1828 0l0 -56.76248l41.01953 0l0 49.92575" fill-rule="evenodd"/><path stroke="#75787b" stroke-width="1.0" stroke-linejoin="round" stroke-linecap="butt" d="m190.70056 392.99155l1.3673553 -5.469391l5.4693756 -1.3673401l-6.836731 6.836731l-34.1828 0l0 -56.76248l41.01953 0l0 49.92575" fill-rule="evenodd"/><path fill="#ffffff" d="m208.928 336.22906l41.01953 0l0 49.92575l-6.8367157 6.836731l-34.182816 0z" fill-rule="evenodd"/><path fill="#cbcbcb" d="m243.11081 392.99155l1.3673401 -5.469391l5.4693756 -1.3673401z" fill-rule="evenodd"/><path fill="#000000" fill-opacity="0.0" d="m243.11081 392.99155l1.3673401 -5.469391l5.4693756 -1.3673401l-6.8367157 6.836731l-34.182816 0l0 -56.76248l41.01953 0l0 49.92575" fill-rule="evenodd"/><path stroke="#75787b" stroke-width="1.0" stroke-linejoin="round" stroke-linecap="butt" d="m243.11081 392.99155l1.3673401 -5.469391l5.4693756 -1.3673401l-6.8367157 6.836731l-34.182816 0l0 -56.76248l41.01953 0l0 49.92575" fill-rule="evenodd"/><path fill="#ffffff" d="m261.33823 336.22906l41.01953 0l0 49.92575l-6.8367004 6.836731l-34.18283 0z" fill-rule="evenodd"/><path fill="#cbcbcb" d="m295.52106 392.99155l1.3673401 -5.469391l5.4693604 -1.3673401z" fill-rule="evenodd"/><path fill="#000000" fill-opacity="0.0" d="m295.52106 392.99155l1.3673401 -5.469391l5.4693604 -1.3673401l-6.8367004 6.836731l-34.18283 0l0 -56.76248l41.01953 0l0 49.92575" fill-rule="evenodd"/><path stroke="#75787b" stroke-width="1.0" stroke-linejoin="round" stroke-linecap="butt" d="m295.52106 392.99155l1.3673401 -5.469391l5.4693604 -1.3673401l-6.8367004 6.836731l-34.18283 0l0 -56.76248l41.01953 0l0 49.92575" fill-rule="evenodd"/><path fill="#ffffff" d="m313.74847 336.22906l41.01953 0l0 49.92575l-6.836731 6.836731l-34.1828 0z" fill-rule="evenodd"/><path fill="#cbcbcb" d="m347.93127 392.99155l1.3673401 -5.469391l5.469391 -1.3673401z" fill-rule="evenodd"/><path fill="#000000" fill-opacity="0.0" d="m347.93127 392.99155l1.3673401 -5.469391l5.469391 -1.3673401l-6.836731 6.836731l-34.1828 0l0 -56.76248l41.01953 0l0 49.92575" fill-rule="evenodd"/><path stroke="#75787b" stroke-width="1.0" stroke-linejoin="round" stroke-linecap="butt" d="m347.93127 392.99155l1.3673401 -5.469391l5.469391 -1.3673401l-6.836731 6.836731l-34.1828 0l0 -56.76248l41.01953 0l0 49.92575" fill-rule="evenodd"/><path fill="#ffffff" d="m51.697277 404.17325l41.019535 0l0 49.92575l-6.836731 6.836731l-34.182804 0z" fill-rule="evenodd"/><path fill="#cbcbcb" d="m85.88008 460.93573l1.3673477 -5.469391l5.4693832 -1.3673401z" fill-rule="evenodd"/><path fill="#000000" fill-opacity="0.0" d="m85.88008 460.93573l1.3673477 -5.469391l5.4693832 -1.3673401l-6.836731 6.836731l-34.182804 0l0 -56.76248l41.019535 0l0 49.92575" fill-rule="evenodd"/><path stroke="#75787b" stroke-width="1.0" stroke-linejoin="round" stroke-linecap="butt" d="m85.88008 460.93573l1.3673477 -5.469391l5.4693832 -1.3673401l-6.836731 6.836731l-34.182804 0l0 -56.76248l41.019535 0l0 49.92575" fill-rule="evenodd"/><path fill="#ffffff" d="m104.10751 404.17325l41.01953 0l0 49.92575l-6.8367157 6.836731l-34.182816 0z" fill-rule="evenodd"/><path fill="#cbcbcb" d="m138.29033 460.93573l1.3673401 -5.469391l5.4693756 -1.3673401z" fill-rule="evenodd"/><path fill="#000000" fill-opacity="0.0" d="m138.29033 460.93573l1.3673401 -5.469391l5.4693756 -1.3673401l-6.8367157 6.836731l-34.182816 0l0 -56.76248l41.01953 0l0 49.92575" fill-rule="evenodd"/><path stroke="#75787b" stroke-width="1.0" stroke-linejoin="round" stroke-linecap="butt" d="m138.29033 460.93573l1.3673401 -5.469391l5.4693756 -1.3673401l-6.8367157 6.836731l-34.182816 0l0 -56.76248l41.01953 0l0 49.92575" fill-rule="evenodd"/><path fill="#ffffff" d="m156.51776 404.17325l41.01953 0l0 49.92575l-6.836731 6.836731l-34.1828 0z" fill-rule="evenodd"/><path fill="#cbcbcb" d="m190.70056 460.93573l1.3673553 -5.469391l5.4693756 -1.3673401z" fill-rule="evenodd"/><path fill="#000000" fill-opacity="0.0" d="m190.70056 460.93573l1.3673553 -5.469391l5.4693756 -1.3673401l-6.836731 6.836731l-34.1828 0l0 -56.76248l41.01953 0l0 49.92575" fill-rule="evenodd"/><path stroke="#75787b" stroke-width="1.0" stroke-linejoin="round" stroke-linecap="butt" d="m190.70056 460.93573l1.3673553 -5.469391l5.4693756 -1.3673401l-6.836731 6.836731l-34.1828 0l0 -56.76248l41.01953 0l0 49.92575" fill-rule="evenodd"/><path fill="#ffffff" d="m208.928 404.17325l41.01953 0l0 49.92575l-6.8367157 6.836731l-34.182816 0z" fill-rule="evenodd"/><path fill="#cbcbcb" d="m243.11081 460.93573l1.3673401 -5.469391l5.4693756 -1.3673401z" fill-rule="evenodd"/><path fill="#000000" fill-opacity="0.0" d="m243.11081 460.93573l1.3673401 -5.469391l5.4693756 -1.3673401l-6.8367157 6.836731l-34.182816 0l0 -56.76248l41.01953 0l0 49.92575" fill-rule="evenodd"/><path stroke="#75787b" stroke-width="1.0" stroke-linejoin="round" stroke-linecap="butt" d="m243.11081 460.93573l1.3673401 -5.469391l5.4693756 -1.3673401l-6.8367157 6.836731l-34.182816 0l0 -56.76248l41.01953 0l0 49.92575" fill-rule="evenodd"/><path fill="#ffffff" d="m261.33823 404.17325l41.01953 0l0 49.92575l-6.8367004 6.836731l-34.18283 0z" fill-rule="evenodd"/><path fill="#cbcbcb" d="m295.52106 460.93573l1.3673401 -5.469391l5.4693604 -1.3673401z" fill-rule="evenodd"/><path fill="#000000" fill-opacity="0.0" d="m295.52106 460.93573l1.3673401 -5.469391l5.4693604 -1.3673401l-6.8367004 6.836731l-34.18283 0l0 -56.76248l41.01953 0l0 49.92575" fill-rule="evenodd"/><path stroke="#75787b" stroke-width="1.0" stroke-linejoin="round" stroke-linecap="butt" d="m295.52106 460.93573l1.3673401 -5.469391l5.4693604 -1.3673401l-6.8367004 6.836731l-34.18283 0l0 -56.76248l41.01953 0l0 49.92575" fill-rule="evenodd"/><path fill="#ffffff" d="m313.74847 404.17325l41.01953 0l0 49.92575l-6.836731 6.836731l-34.1828 0z" fill-rule="evenodd"/><path fill="#cbcbcb" d="m347.93127 460.93573l1.3673401 -5.469391l5.469391 -1.3673401z" fill-rule="evenodd"/><path fill="#000000" fill-opacity="0.0" d="m347.93127 460.93573l1.3673401 -5.469391l5.469391 -1.3673401l-6.836731 6.836731l-34.1828 0l0 -56.76248l41.01953 0l0 49.92575" fill-rule="evenodd"/><path stroke="#75787b" stroke-width="1.0" stroke-linejoin="round" stroke-linecap="butt" d="m347.93127 460.93573l1.3673401 -5.469391l5.469391 -1.3673401l-6.836731 6.836731l-34.1828 0l0 -56.76248l41.01953 0l0 49.92575" fill-rule="evenodd"/><path fill="#ffd500" d="m104.10751 210.04703l41.01953 0l0 49.92575l-6.8367157 6.836731l-34.182816 0z" fill-rule="evenodd"/><path fill="#cbaa00" d="m138.29033 266.8095l1.3673401 -5.469391l5.4693756 -1.3673401z" fill-rule="evenodd"/><path fill="#000000" fill-opacity="0.0" d="m138.29033 266.8095l1.3673401 -5.469391l5.4693756 -1.3673401l-6.8367157 6.836731l-34.182816 0l0 -56.76248l41.01953 0l0 49.92575" fill-rule="evenodd"/><path stroke="#75787b" stroke-width="1.0" stroke-linejoin="round" stroke-linecap="butt" d="m138.29033 266.8095l1.3673401 -5.469391l5.4693756 -1.3673401l-6.8367157 6.836731l-34.182816 0l0 -56.76248l41.01953 0l0 49.92575" fill-rule="evenodd"/><path fill="#ffd500" d="m156.51776 210.04703l41.01953 0l0 49.92575l-6.836731 6.836731l-34.1828 0z" fill-rule="evenodd"/><path fill="#cbaa00" d="m190.70056 266.8095l1.3673553 -5.469391l5.4693756 -1.3673401z" fill-rule="evenodd"/><path fill="#000000" fill-opacity="0.0" d="m190.70056 266.8095l1.3673553 -5.469391l5.4693756 -1.3673401l-6.836731 6.836731l-34.1828 0l0 -56.76248l41.01953 0l0 49.92575" fill-rule="evenodd"/><path stroke="#75787b" stroke-width="1.0" stroke-linejoin="round" stroke-linecap="butt" d="m190.70056 266.8095l1.3673553 -5.469391l5.4693756 -1.3673401l-6.836731 6.836731l-34.1828 0l0 -56.76248l41.01953 0l0 49.92575" fill-rule="evenodd"/><path fill="#ffd500" d="m208.928 210.04703l41.01953 0l0 49.92575l-6.8367157 6.836731l-34.182816 0z" fill-rule="evenodd"/><path fill="#cbaa00" d="m243.11081 266.8095l1.3673401 -5.469391l5.4693756 -1.3673401z" fill-rule="evenodd"/><path fill="#000000" fill-opacity="0.0" d="m243.11081 266.8095l1.3673401 -5.469391l5.4693756 -1.3673401l-6.8367157 6.836731l-34.182816 0l0 -56.76248l41.01953 0l0 49.92575" fill-rule="evenodd"/><path stroke="#75787b" stroke-width="1.0" stroke-linejoin="round" stroke-linecap="butt" d="m243.11081 266.8095l1.3673401 -5.469391l5.4693756 -1.3673401l-6.8367157 6.836731l-34.182816 0l0 -56.76248l41.01953 0l0 49.92575" fill-rule="evenodd"/><path fill="#ffd500" d="m261.33823 210.04703l41.01953 0l0 49.92575l-6.8367004 6.836731l-34.18283 0z" fill-rule="evenodd"/><path fill="#cbaa00" d="m295.52106 266.8095l1.3673401 -5.469391l5.4693604 -1.3673401z" fill-rule="evenodd"/><path fill="#000000" fill-opacity="0.0" d="m295.52106 266.8095l1.3673401 -5.469391l5.4693604 -1.3673401l-6.8367004 6.836731l-34.18283 0l0 -56.76248l41.01953 0l0 49.92575" fill-rule="evenodd"/><path stroke="#75787b" stroke-width="1.0" stroke-linejoin="round" stroke-linecap="butt" d="m295.52106 266.8095l1.3673401 -5.469391l5.4693604 -1.3673401l-6.8367004 6.836731l-34.18283 0l0 -56.76248l41.01953 0l0 49.92575" fill-rule="evenodd"/><path fill="#000000" fill-opacity="0.0" d="m-2.1572902 27.947506l420.31497 0l0 81.00787l-420.31497 0z" fill-rule="evenodd"/><path fill="#000000" d="m69.98439 68.183136q-3.234375 0 -5.953125 -1.5625q-2.7187538 -1.578125 -4.328129 -4.328129q-1.59375 -2.75 -1.59375 -6.078125q0 -3.328125 1.59375 -6.078125q1.609375 -2.75 4.328129 -4.3125q2.71875 -1.578125 5.953125 -1.578125q2.53125 0 4.75 0.90625q2.21875 0.890625 3.671875 2.515625l-1.921875 1.953125q-1.125 -1.34375 -2.828125 -2.0625q-1.6875 -0.71875 -3.640625 -0.71875q-2.40625 0 -4.515625 1.171875q-2.1093788 1.15625 -3.3750038 3.296875q-1.265625 2.125 -1.265625 4.90625q0 2.78125 1.265625 4.90625q1.265625 2.125 3.3750038 3.2968788q2.109375 1.171875 4.515625 1.171875q2.296875 0 3.84375 -0.71875q1.5625 -0.71875 2.6875 -1.9062538q0.828125 -0.890625 1.34375 -2.15625q0.515625 -1.265625 0.640625 -2.796875l-8.484375 0l0 -2.53125l11.015625 0q0.15625 0.890625 0.15625 1.65625q0 2.109375 -0.671875 4.109375q-0.671875 2.0 -2.140625 3.5156288q-3.171875 3.421875 -8.421875 3.421875zm22.074799 0q-2.390625 0 -4.3125 -1.15625q-1.921875 -1.15625 -3.0 -3.1406288q-1.0625 -1.984375 -1.0625 -4.375q0 -2.40625 1.0625 -4.390625q1.078125 -1.984375 3.0 -3.125q1.921875 -1.15625 4.3125 -1.15625q2.40625 0 4.328125 1.15625q1.921875 1.140625 2.984375 3.125q1.078125 1.984375 1.078125 4.390625q0 2.390625 -1.078125 4.375q-1.0625 1.9843788 -2.984375 3.1406288q-1.921875 1.15625 -4.328125 1.15625zm0 -2.46875q1.515625 0 2.796875 -0.75q1.296875 -0.75 2.078125 -2.1562538q0.796875 -1.40625 0.796875 -3.296875q0 -1.890625 -0.796875 -3.296875q-0.78125 -1.40625 -2.078125 -2.15625q-1.28125 -0.765625 -2.796875 -0.765625q-1.5 0 -2.8125 0.765625q-1.3125 0.75 -2.09375 2.15625q-0.78125 1.40625 -0.78125 3.296875q0 1.890625 0.78125 3.296875q0.78125 1.4062538 2.09375 2.1562538q1.3125 0.75 2.8125 0.75zm19.072037 2.46875q-2.390625 0 -4.3125 -1.15625q-1.921875 -1.15625 -3.0 -3.1406288q-1.0625 -1.984375 -1.0625 -4.375q0 -2.40625 1.0625 -4.390625q1.078125 -1.984375 3.0 -3.125q1.921875 -1.15625 4.3125 -1.15625q2.40625 0 4.328125 1.15625q1.921875 1.140625 2.984375 3.125q1.078125 1.984375 1.078125 4.390625q0 2.390625 -1.078125 4.375q-1.0625 1.9843788 -2.984375 3.1406288q-1.921875 1.15625 -4.328125 1.15625zm0 -2.46875q1.515625 0 2.796875 -0.75q1.296875 -0.75 2.078125 -2.1562538q0.796875 -1.40625 0.796875 -3.296875q0 -1.890625 -0.796875 -3.296875q-0.78125 -1.40625 -2.078125 -2.15625q-1.28125 -0.765625 -2.796875 -0.765625q-1.5 0 -2.8125 0.765625q-1.3125 0.75 -2.09375 2.15625q-0.78125 1.40625 -0.78125 3.296875q0 1.890625 0.78125 3.296875q0.78125 1.4062538 2.09375 2.1562538q1.3125 0.75 2.8125 0.75zm18.728287 9.375q-2.890625 0 -4.765625 -1.34375q-1.859375 -1.34375 -2.5 -3.234375l2.5 -1.046875q0.5 1.40625 1.765625 2.28125q1.265625 0.875 3.0 0.875q2.53125 0 3.921875 -1.46875q1.390625 -1.46875 1.390625 -4.15625l0 -1.828125l-0.125 0q-0.8125 1.25 -2.265625 2.03125q-1.453125 0.78125 -3.3125 0.78125q-2.109375 0 -3.859375 -1.078125q-1.734375 -1.09375 -2.765625 -3.0468788q-1.015625 -1.953125 -1.015625 -4.4375q0 -2.46875 1.015625 -4.4375q1.03125 -1.96875 2.765625 -3.046875q1.75 -1.09375 3.859375 -1.09375q1.859375 0 3.3125 0.78125q1.453125 0.78125 2.265625 2.0625l0.125 0l0 -2.328125l2.59375 0l0 15.671879q0 3.9375 -2.1875 6.0q-2.171875 2.0625 -5.71875 2.0625zm0 -9.5625q1.46875 0 2.671875 -0.734375q1.203125 -0.734375 1.921875 -2.1093788q0.71875 -1.390625 0.71875 -3.265625q0 -1.921875 -0.71875 -3.296875q-0.71875 -1.375 -1.921875 -2.09375q-1.203125 -0.734375 -2.671875 -0.734375q-1.46875 0 -2.6875 0.75q-1.21875 0.734375 -1.9375 2.109375q-0.71875 1.375 -0.71875 3.265625q0 1.875 0.71875 3.28125q0.71875 1.3906288 1.9375 2.1093788q1.21875 0.71875 2.6875 0.71875zm11.932159 -20.765629l2.71875 0l0 22.906254l-2.71875 0l0 -22.906254zm13.8576355 23.421879q-2.34375 0 -4.203125 -1.125q-1.84375 -1.125 -2.890625 -3.0781288q-1.03125 -1.96875 -1.03125 -4.4375q0 -2.34375 0.96875 -4.34375q0.984375 -2.0 2.78125 -3.171875q1.8125 -1.1875 4.15625 -1.1875q2.390625 0 4.140625 1.078125q1.765625 1.0625 2.703125 2.953125q0.953125 1.890625 0.953125 4.3125q0 0.390625 -0.0625 0.84375l-12.921875 0q0.09375 1.84375 0.890625 3.125q0.796875 1.2812538 2.03125 1.9218788q1.234375 0.640625 2.578125 0.640625q3.203125 0 4.828125 -2.9375038l2.3125 1.109375q-1.03125 1.9531288 -2.859375 3.1250038q-1.8125 1.171875 -4.375 1.171875zm4.703125 -10.406254q-0.0625 -1.015625 -0.578125 -2.03125q-0.515625 -1.03125 -1.609375 -1.734375q-1.078125 -0.71875 -2.734375 -0.71875q-1.921875 0 -3.265625 1.234375q-1.34375 1.234375 -1.765625 3.25l9.953125 0zm4.031662 9.890629l0 0zm9.986511 -22.906254l7.703125 0q1.921875 0 3.546875 0.859375q1.640625 0.859375 2.609375 2.421875q0.984375 1.546875 0.984375 3.5q0 1.953125 -0.984375 3.5q-0.96875 1.546875 -2.609375 2.421875q-1.625 0.859375 -3.546875 0.859375l-4.984375 0l0 9.343754l-2.71875 0l0 -22.906254zm7.78125 10.96875q1.265625 0 2.234375 -0.609375q0.984375 -0.609375 1.53125 -1.5625q0.546875 -0.96875 0.546875 -2.015625q0 -1.0625 -0.546875 -2.015625q-0.546875 -0.96875 -1.53125 -1.5625q-0.96875 -0.609375 -2.234375 -0.609375l-5.0625 0l0 8.375l5.0625 0zm10.263916 -10.96875l2.71875 0l0 22.906254l-2.71875 0l0 -22.906254zm11.8107605 23.421879q-1.796875 0 -3.203125 -0.703125q-1.40625 -0.703125 -2.171875 -1.9375q-0.765625 -1.234375 -0.765625 -2.7968788q0 -2.59375 1.9375 -4.046875q1.953125 -1.46875 4.9375 -1.46875q1.46875 0 2.734375 0.328125q1.265625 0.3125 1.9375 0.734375l0 -1.0q0 -1.8125 -1.28125 -2.921875q-1.28125 -1.109375 -3.234375 -1.109375q-1.34375 0 -2.515625 0.59375q-1.15625 0.59375 -1.828125 1.65625l-2.046875 -1.546875q0.953125 -1.46875 2.640625 -2.296875q1.703125 -0.828125 3.75 -0.828125q3.328125 0 5.21875 1.75q1.890625 1.734375 1.890625 4.734375l0 10.343754l-2.59375 0l0 -2.34375l-0.125 0q-0.703125 1.1875 -2.125 2.03125q-1.40625 0.828125 -3.15625 0.828125zm0.25 -2.40625q1.375 0 2.5625 -0.703125q1.1875 -0.703125 1.890625 -1.8750038q0.703125 -1.1875 0.703125 -2.609375q-0.765625 -0.5 -1.890625 -0.8125q-1.125 -0.328125 -2.359375 -0.328125q-2.25 0 -3.390625 0.921875q-1.125 0.921875 -1.125 2.40625q0 1.3437538 1.015625 2.1718788q1.03125 0.828125 2.59375 0.828125zm16.203278 0.859375l-6.765625 -15.281254l2.953125 0l5.109375 12.125l0.078125 0l4.921875 -12.125l2.9375 0l-10.078125 23.218754l-2.8125 0l3.65625 -7.9375zm9.496414 1.03125l0 0zm15.4171295 0.515625q-1.71875 0 -3.34375 -0.71875q-1.609375 -0.71875 -2.859375 -2.109375q-1.25 -1.4062538 -1.796875 -3.3906288l2.59375 -1.046875q0.546875 2.046875 2.015625 3.3593788q1.484375 1.3125 3.46875 1.3125q1.984375 0 3.359375 -1.0625q1.375 -1.0781288 1.375 -2.9375038q0 -1.609375 -1.171875 -2.640625q-1.171875 -1.046875 -3.828125 -1.9375l-1.4375 -0.515625q-2.4375 -0.859375 -3.96875 -2.265625q-1.53125 -1.40625 -1.53125 -3.90625q0 -1.625 0.890625 -3.015625q0.890625 -1.40625 2.484375 -2.234375q1.609375 -0.828125 3.59375 -0.828125q1.984375 0 3.453125 0.734375q1.484375 0.734375 2.359375 1.796875q0.875 1.046875 1.234375 2.078125l-2.53125 1.078125q-0.359375 -1.171875 -1.5 -2.125q-1.125 -0.96875 -2.984375 -0.96875q-1.75 0 -3.0 1.0q-1.25 0.984375 -1.25 2.484375q0 1.34375 1.046875 2.203125q1.0625 0.84375 3.203125 1.578125l1.515625 0.5q2.90625 1.0625 4.53125 2.65625q1.640625 1.578125 1.640625 4.296875q0 2.203125 -1.140625 3.7187538q-1.140625 1.5 -2.875 2.203125q-1.71875 0.703125 -3.546875 0.703125zm18.312164 0q-2.34375 0 -4.203125 -1.125q-1.84375 -1.125 -2.890625 -3.0781288q-1.03125 -1.96875 -1.03125 -4.4375q0 -2.34375 0.96875 -4.34375q0.984375 -2.0 2.78125 -3.171875q1.8125 -1.1875 4.15625 -1.1875q2.390625 0 4.140625 1.078125q1.765625 1.0625 2.703125 2.953125q0.953125 1.890625 0.953125 4.3125q0 0.390625 -0.0625 0.84375l-12.921875 0q0.09375 1.84375 0.890625 3.125q0.796875 1.2812538 2.03125 1.9218788q1.234375 0.640625 2.578125 0.640625q3.203125 0 4.828125 -2.9375038l2.3125 1.109375q-1.03125 1.9531288 -2.859375 3.1250038q-1.8125 1.171875 -4.375 1.171875zm4.703125 -10.406254q-0.0625 -1.015625 -0.578125 -2.03125q-0.515625 -1.03125 -1.609375 -1.734375q-1.078125 -0.71875 -2.734375 -0.71875q-1.921875 0 -3.265625 1.234375q-1.34375 1.234375 -1.765625 3.25l9.953125 0zm6.0473022 -6.421875l2.59375 0l0 2.609375l0.125 0q0.484375 -1.34375 1.859375 -2.21875q1.375 -0.875 2.875 -0.875q1.125 0 1.921875 0.3125l0 2.953125q-1.015625 -0.515625 -2.296875 -0.515625q-1.1875 0 -2.1875 0.671875q-0.984375 0.671875 -1.578125 1.8125q-0.59375 1.125 -0.59375 2.4375l0 9.125004l-2.71875 0l0 -16.312504zm10.747131 0l2.921875 0l5.046875 13.109379l0.0625 0l5.125 -13.109379l2.84375 0l-6.65625 16.312504l-2.75 0l-6.59375 -16.312504zm19.838684 -3.015625q-0.796875 0 -1.375 -0.578125q-0.578125 -0.578125 -0.578125 -1.375q0 -0.828125 0.578125 -1.390625q0.578125 -0.5625 1.375 -0.5625q0.84375 0 1.390625 0.5625q0.5625 0.5625 0.5625 1.390625q0 0.796875 -0.5625 1.375q-0.546875 0.578125 -1.390625 0.578125zm-1.34375 3.015625l2.71875 0l0 16.312504l-2.71875 0l0 -16.312504zm14.212616 16.828129q-2.359375 0 -4.25 -1.140625q-1.890625 -1.140625 -2.953125 -3.1093788q-1.046875 -1.96875 -1.046875 -4.421875q0 -2.46875 1.046875 -4.453125q1.0625 -1.984375 2.953125 -3.09375q1.890625 -1.125 4.25 -1.125q2.65625 0 4.46875 1.234375q1.8125 1.21875 2.578125 3.28125l-2.46875 1.015625q-0.609375 -1.5 -1.8125 -2.28125q-1.203125 -0.796875 -2.890625 -0.796875q-1.4375 0 -2.6875 0.796875q-1.25 0.78125 -2.0 2.1875q-0.75 1.40625 -0.75 3.234375q0 1.8125 0.75 3.234375q0.75 1.4062538 2.0 2.1875038q1.25 0.78125 2.6875 0.78125q1.734375 0 2.96875 -0.796875q1.25 -0.796875 1.859375 -2.2812538l2.4375 1.03125q-0.828125 2.0156288 -2.671875 3.2656288q-1.84375 1.25 -4.46875 1.25zm17.187042 0q-2.34375 0 -4.203125 -1.125q-1.84375 -1.125 -2.890625 -3.0781288q-1.03125 -1.96875 -1.03125 -4.4375q0 -2.34375 0.96875 -4.34375q0.984375 -2.0 2.78125 -3.171875q1.8125 -1.1875 4.15625 -1.1875q2.390625 0 4.140625 1.078125q1.765625 1.0625 2.703125 2.953125q0.953125 1.890625 0.953125 4.3125q0 0.390625 -0.0625 0.84375l-12.921875 0q0.09375 1.84375 0.890625 3.125q0.796875 1.2812538 2.03125 1.9218788q1.234375 0.640625 2.578125 0.640625q3.203125 0 4.828125 -2.9375038l2.3125 1.109375q-1.03125 1.9531288 -2.859375 3.1250038q-1.8125 1.171875 -4.375 1.171875zm4.703125 -10.406254q-0.0625 -1.015625 -0.578125 -2.03125q-0.515625 -1.03125 -1.609375 -1.734375q-1.078125 -0.71875 -2.734375 -0.71875q-1.921875 0 -3.265625 1.234375q-1.34375 1.234375 -1.765625 3.25l9.953125 0zm11.9104 10.406254q-2.625 0 -4.390625 -1.234375q-1.765625 -1.234375 -2.5 -3.1562538l2.4375 -1.078125q0.609375 1.4687538 1.796875 2.2656288q1.203125 0.796875 2.65625 0.796875q1.53125 0 2.609375 -0.625q1.09375 -0.625 1.09375 -1.7656288q0 -1.03125 -0.859375 -1.65625q-0.859375 -0.625 -2.71875 -1.078125l-1.984375 -0.5q-1.953125 -0.484375 -3.203125 -1.625q-1.25 -1.15625 -1.25 -2.984375q0 -1.40625 0.84375 -2.484375q0.859375 -1.078125 2.265625 -1.640625q1.40625 -0.578125 3.03125 -0.578125q2.15625 0 3.828125 0.9375q1.6875 0.921875 2.390625 2.578125l-2.375 1.09375q-1.09375 -2.1875 -3.875 -2.1875q-1.34375 0 -2.359375 0.625q-1.0 0.625 -1.0 1.59375q0 0.890625 0.703125 1.453125q0.703125 0.5625 2.109375 0.90625l2.375 0.609375q2.40625 0.609375 3.609375 1.8125q1.21875 1.203125 1.21875 2.921875q0 1.5156288 -0.859375 2.6562538q-0.859375 1.125 -2.34375 1.734375q-1.46875 0.609375 -3.25 0.609375z" fill-rule="nonzero"/><path fill="#000000" fill-opacity="0.0" d="m156.5194 472.12064l93.44882 0l0 56.787384l-93.44882 0z" fill-rule="evenodd"/><path fill="#000000" d="m182.65526 488.9344l3.0625 0l8.703125 22.90625l-2.96875 0l-2.296875 -6.296875l-9.921875 0l-2.3125 6.296875l-2.96875 0l8.703125 -22.90625zm5.5625 14.046875l-3.0625 -8.265625l-0.90625 -2.453125l-0.125 0l-0.890625 2.453125l-3.078125 8.265625l8.0625 0zm8.740677 -7.453125l2.59375 0l0 2.421875l0.125 0q0.734375 -1.25 2.21875 -2.09375q1.484375 -0.84375 3.34375 -0.84375q2.21875 0 3.984375 1.125q1.78125 1.109375 2.796875 3.09375q1.03125 1.984375 1.03125 4.453125q0 2.5 -1.03125 4.46875q-1.015625 1.953125 -2.796875 3.078125q-1.765625 1.125 -3.984375 1.125q-1.859375 0 -3.34375 -0.84375q-1.484375 -0.859375 -2.21875 -2.078125l-0.125 0l0.125 2.25l0 7.0625l-2.71875 0l0 -23.21875zm8.0 14.359375q1.40625 0 2.65625 -0.765625q1.25 -0.765625 1.984375 -2.171875q0.734375 -1.40625 0.734375 -3.265625q0 -1.859375 -0.734375 -3.265625q-0.734375 -1.40625 -1.984375 -2.171875q-1.25 -0.78125 -2.65625 -0.78125q-1.4375 0 -2.671875 0.78125q-1.234375 0.765625 -1.984375 2.171875q-0.75 1.40625 -0.75 3.265625q0 1.859375 0.75 3.265625q0.75 1.40625 1.984375 2.171875q1.234375 0.765625 2.671875 0.765625zm10.816025 -14.359375l2.59375 0l0 2.421875l0.125 0q0.734375 -1.25 2.21875 -2.09375q1.484375 -0.84375 3.34375 -0.84375q2.21875 0 3.984375 1.125q1.78125 1.109375 2.796875 3.09375q1.03125 1.984375 1.03125 4.453125q0 2.5 -1.03125 4.46875q-1.015625 1.953125 -2.796875 3.078125q-1.765625 1.125 -3.984375 1.125q-1.859375 0 -3.34375 -0.84375q-1.484375 -0.859375 -2.21875 -2.078125l-0.125 0l0.125 2.25l0 7.0625l-2.71875 0l0 -23.21875zm8.0 14.359375q1.40625 0 2.65625 -0.765625q1.25 -0.765625 1.984375 -2.171875q0.734375 -1.40625 0.734375 -3.265625q0 -1.859375 -0.734375 -3.265625q-0.734375 -1.40625 -1.984375 -2.171875q-1.25 -0.78125 -2.65625 -0.78125q-1.4375 0 -2.671875 0.78125q-1.234375 0.765625 -1.984375 2.171875q-0.75 1.40625 -0.75 3.265625q0 1.859375 0.75 3.265625q0.75 1.40625 1.984375 2.171875q1.234375 0.765625 2.671875 0.765625z" fill-rule="nonzero"/><path fill="#ffffff" d="m51.697433 88.67968l41.01954 0l0 49.925743l-6.836731 6.836731l-34.182808 0z" fill-rule="evenodd"/><path fill="#cbcbcb" d="m85.88024 145.44215l1.3673477 -5.4693756l5.4693832 -1.3673553z" fill-rule="evenodd"/><path fill="#000000" fill-opacity="0.0" d="m85.88024 145.44215l1.3673477 -5.4693756l5.4693832 -1.3673553l-6.836731 6.836731l-34.182808 0l0 -56.762474l41.01954 0l0 49.925743" fill-rule="evenodd"/><path stroke="#75787b" stroke-width="1.0" stroke-linejoin="round" stroke-linecap="butt" d="m85.88024 145.44215l1.3673477 -5.4693756l5.4693832 -1.3673553l-6.836731 6.836731l-34.182808 0l0 -56.762474l41.01954 0l0 49.925743" fill-rule="evenodd"/><path fill="#ffffff" d="m104.10767 88.67968l41.01954 0l0 49.925743l-6.836731 6.836731l-34.182808 0z" fill-rule="evenodd"/><path fill="#cbcbcb" d="m138.29048 145.44215l1.3673401 -5.4693756l5.469391 -1.3673553z" fill-rule="evenodd"/><path fill="#000000" fill-opacity="0.0" d="m138.29048 145.44215l1.3673401 -5.4693756l5.469391 -1.3673553l-6.836731 6.836731l-34.182808 0l0 -56.762474l41.01954 0l0 49.925743" fill-rule="evenodd"/><path stroke="#75787b" stroke-width="1.0" stroke-linejoin="round" stroke-linecap="butt" d="m138.29048 145.44215l1.3673401 -5.4693756l5.469391 -1.3673553l-6.836731 6.836731l-34.182808 0l0 -56.762474l41.01954 0l0 49.925743" fill-rule="evenodd"/><path fill="#ffffff" d="m156.51791 88.67968l41.01953 0l0 49.925743l-6.8367157 6.836731l-34.182816 0z" fill-rule="evenodd"/><path fill="#cbcbcb" d="m190.70073 145.44215l1.3673401 -5.4693756l5.4693756 -1.3673553z" fill-rule="evenodd"/><path fill="#000000" fill-opacity="0.0" d="m190.70073 145.44215l1.3673401 -5.4693756l5.4693756 -1.3673553l-6.8367157 6.836731l-34.182816 0l0 -56.762474l41.01953 0l0 49.925743" fill-rule="evenodd"/><path stroke="#75787b" stroke-width="1.0" stroke-linejoin="round" stroke-linecap="butt" d="m190.70073 145.44215l1.3673401 -5.4693756l5.4693756 -1.3673553l-6.8367157 6.836731l-34.182816 0l0 -56.762474l41.01953 0l0 49.925743" fill-rule="evenodd"/><path fill="#ffffff" d="m208.92816 88.67968l41.01953 0l0 49.925743l-6.836731 6.836731l-34.1828 0z" fill-rule="evenodd"/><path fill="#cbcbcb" d="m243.11096 145.44215l1.3673401 -5.4693756l5.469391 -1.3673553z" fill-rule="evenodd"/><path fill="#000000" fill-opacity="0.0" d="m243.11096 145.44215l1.3673401 -5.4693756l5.469391 -1.3673553l-6.836731 6.836731l-34.1828 0l0 -56.762474l41.01953 0l0 49.925743" fill-rule="evenodd"/><path stroke="#75787b" stroke-width="1.0" stroke-linejoin="round" stroke-linecap="butt" d="m243.11096 145.44215l1.3673401 -5.4693756l5.469391 -1.3673553l-6.836731 6.836731l-34.1828 0l0 -56.762474l41.01953 0l0 49.925743" fill-rule="evenodd"/><path fill="#ffffff" d="m261.3384 88.67968l41.01953 0l0 49.925743l-6.836731 6.836731l-34.1828 0z" fill-rule="evenodd"/><path fill="#cbcbcb" d="m295.5212 145.44215l1.3673401 -5.4693756l5.469391 -1.3673553z" fill-rule="evenodd"/><path fill="#000000" fill-opacity="0.0" d="m295.5212 145.44215l1.3673401 -5.4693756l5.469391 -1.3673553l-6.836731 6.836731l-34.1828 0l0 -56.762474l41.01953 0l0 49.925743" fill-rule="evenodd"/><path stroke="#75787b" stroke-width="1.0" stroke-linejoin="round" stroke-linecap="butt" d="m295.5212 145.44215l1.3673401 -5.4693756l5.469391 -1.3673553l-6.836731 6.836731l-34.1828 0l0 -56.762474l41.01953 0l0 49.925743" fill-rule="evenodd"/><path fill="#ffffff" d="m313.74863 88.67968l41.01953 0l0 49.925743l-6.8367004 6.836731l-34.18283 0z" fill-rule="evenodd"/><path fill="#cbcbcb" d="m347.93146 145.44215l1.3673401 -5.4693756l5.4693604 -1.3673553z" fill-rule="evenodd"/><path fill="#000000" fill-opacity="0.0" d="m347.93146 145.44215l1.3673401 -5.4693756l5.4693604 -1.3673553l-6.8367004 6.836731l-34.18283 0l0 -56.762474l41.01953 0l0 49.925743" fill-rule="evenodd"/><path stroke="#75787b" stroke-width="1.0" stroke-linejoin="round" stroke-linecap="butt" d="m347.93146 145.44215l1.3673401 -5.4693756l5.4693604 -1.3673553l-6.8367004 6.836731l-34.18283 0l0 -56.762474l41.01953 0l0 49.925743" fill-rule="evenodd"/><path fill="#ffffff" d="m104.10767 210.03772l41.01954 0l0 49.92575l-6.836731 6.836731l-34.182808 0z" fill-rule="evenodd"/><path fill="#cbcbcb" d="m138.29048 266.8002l1.3673401 -5.469391l5.469391 -1.3673401z" fill-rule="evenodd"/><path fill="#000000" fill-opacity="0.0" d="m138.29048 266.8002l1.3673401 -5.469391l5.469391 -1.3673401l-6.836731 6.836731l-34.182808 0l0 -56.76248l41.01954 0l0 49.92575" fill-rule="evenodd"/><path stroke="#75787b" stroke-width="1.0" stroke-linejoin="round" stroke-linecap="butt" d="m138.29048 266.8002l1.3673401 -5.469391l5.469391 -1.3673401l-6.836731 6.836731l-34.182808 0l0 -56.76248l41.01954 0l0 49.92575" fill-rule="evenodd"/><path fill="#ffffff" d="m156.51791 210.03772l41.01953 0l0 49.92575l-6.8367157 6.836731l-34.182816 0z" fill-rule="evenodd"/><path fill="#cbcbcb" d="m190.70073 266.8002l1.3673401 -5.469391l5.4693756 -1.3673401z" fill-rule="evenodd"/><path fill="#000000" fill-opacity="0.0" d="m190.70073 266.8002l1.3673401 -5.469391l5.4693756 -1.3673401l-6.8367157 6.836731l-34.182816 0l0 -56.76248l41.01953 0l0 49.92575" fill-rule="evenodd"/><path stroke="#75787b" stroke-width="1.0" stroke-linejoin="round" stroke-linecap="butt" d="m190.70073 266.8002l1.3673401 -5.469391l5.4693756 -1.3673401l-6.8367157 6.836731l-34.182816 0l0 -56.76248l41.01953 0l0 49.92575" fill-rule="evenodd"/><path fill="#ffffff" d="m208.92816 210.03772l41.01953 0l0 49.92575l-6.836731 6.836731l-34.1828 0z" fill-rule="evenodd"/><path fill="#cbcbcb" d="m243.11096 266.8002l1.3673401 -5.469391l5.469391 -1.3673401z" fill-rule="evenodd"/><path fill="#000000" fill-opacity="0.0" d="m243.11096 266.8002l1.3673401 -5.469391l5.469391 -1.3673401l-6.836731 6.836731l-34.1828 0l0 -56.76248l41.01953 0l0 49.92575" fill-rule="evenodd"/><path stroke="#75787b" stroke-width="1.0" stroke-linejoin="round" stroke-linecap="butt" d="m243.11096 266.8002l1.3673401 -5.469391l5.469391 -1.3673401l-6.836731 6.836731l-34.1828 0l0 -56.76248l41.01953 0l0 49.92575" fill-rule="evenodd"/><path fill="#ffffff" d="m261.3384 210.03772l41.01953 0l0 49.92575l-6.836731 6.836731l-34.1828 0z" fill-rule="evenodd"/><path fill="#cbcbcb" d="m295.5212 266.8002l1.3673401 -5.469391l5.469391 -1.3673401z" fill-rule="evenodd"/><path fill="#000000" fill-opacity="0.0" d="m295.5212 266.8002l1.3673401 -5.469391l5.469391 -1.3673401l-6.836731 6.836731l-34.1828 0l0 -56.76248l41.01953 0l0 49.92575" fill-rule="evenodd"/><path stroke="#75787b" stroke-width="1.0" stroke-linejoin="round" stroke-linecap="butt" d="m295.5212 266.8002l1.3673401 -5.469391l5.469391 -1.3673401l-6.836731 6.836731l-34.1828 0l0 -56.76248l41.01953 0l0 49.92575" fill-rule="evenodd"/><path fill="#000000" fill-opacity="0.0" d="m428.66983 210.02362l264.1575 0l0 56.787415l-264.1575 0z" fill-rule="evenodd"/><path fill="#000000" d="m440.23233 226.83737l2.71875 0l0 20.3125l10.015625 0l0 2.59375l-12.734375 0l0 -22.90625zm22.872772 23.421875q-2.390625 0 -4.3125 -1.15625q-1.921875 -1.15625 -3.0 -3.140625q-1.0625 -1.984375 -1.0625 -4.375q0 -2.40625 1.0625 -4.390625q1.078125 -1.984375 3.0 -3.125q1.921875 -1.15625 4.3125 -1.15625q2.40625 0 4.328125 1.15625q1.921875 1.140625 2.984375 3.125q1.078125 1.984375 1.078125 4.390625q0 2.390625 -1.078125 4.375q-1.0625 1.984375 -2.984375 3.140625q-1.921875 1.15625 -4.328125 1.15625zm0 -2.46875q1.515625 0 2.796875 -0.75q1.296875 -0.75 2.078125 -2.15625q0.796875 -1.40625 0.796875 -3.296875q0 -1.890625 -0.796875 -3.296875q-0.78125 -1.40625 -2.078125 -2.15625q-1.28125 -0.765625 -2.796875 -0.765625q-1.5 0 -2.8125 0.765625q-1.3125 0.75 -2.09375 2.15625q-0.78125 1.40625 -0.78125 3.296875q0 1.890625 0.78125 3.296875q0.78125 1.40625 2.09375 2.15625q1.3125 0.75 2.8125 0.75zm18.947052 2.46875q-2.359375 0 -4.25 -1.140625q-1.890625 -1.140625 -2.953125 -3.109375q-1.046875 -1.96875 -1.046875 -4.421875q0 -2.46875 1.046875 -4.453125q1.0625 -1.984375 2.953125 -3.09375q1.890625 -1.125 4.25 -1.125q2.65625 0 4.46875 1.234375q1.8125 1.21875 2.578125 3.28125l-2.46875 1.015625q-0.609375 -1.5 -1.8125 -2.28125q-1.203125 -0.796875 -2.890625 -0.796875q-1.4375 0 -2.6875 0.796875q-1.25 0.78125 -2.0 2.1875q-0.75 1.40625 -0.75 3.234375q0 1.8125 0.75 3.234375q0.75 1.40625 2.0 2.1875q1.25 0.78125 2.6875 0.78125q1.734375 0 2.96875 -0.796875q1.25 -0.796875 1.859375 -2.28125l2.4375 1.03125q-0.828125 2.015625 -2.671875 3.265625q-1.84375 1.25 -4.46875 1.25zm15.140137 0q-1.796875 0 -3.203125 -0.703125q-1.40625 -0.703125 -2.171875 -1.9375q-0.765625 -1.234375 -0.765625 -2.796875q0 -2.59375 1.9375 -4.046875q1.953125 -1.46875 4.9375 -1.46875q1.46875 0 2.734375 0.328125q1.265625 0.3125 1.9375 0.734375l0 -1.0q0 -1.8125 -1.28125 -2.921875q-1.28125 -1.109375 -3.234375 -1.109375q-1.34375 0 -2.515625 0.59375q-1.15625 0.59375 -1.828125 1.65625l-2.046875 -1.546875q0.953125 -1.46875 2.640625 -2.296875q1.703125 -0.828125 3.75 -0.828125q3.328125 0 5.21875 1.75q1.890625 1.734375 1.890625 4.734375l0 10.34375l-2.59375 0l0 -2.34375l-0.125 0q-0.703125 1.1875 -2.125 2.03125q-1.40625 0.828125 -3.15625 0.828125zm0.25 -2.40625q1.375 0 2.5625 -0.703125q1.1875 -0.703125 1.890625 -1.875q0.703125 -1.1875 0.703125 -2.609375q-0.765625 -0.5 -1.890625 -0.8125q-1.125 -0.328125 -2.359375 -0.328125q-2.25 0 -3.390625 0.921875q-1.125 0.921875 -1.125 2.40625q0 1.34375 1.015625 2.171875q1.03125 0.828125 2.59375 0.828125zm17.468903 2.140625q-0.984375 0 -1.84375 -0.3125q-0.84375 -0.328125 -1.40625 -0.859375q-1.28125 -1.21875 -1.28125 -3.359375l0 -9.578125l-2.859375 0l0 -2.453125l2.859375 0l0 -4.609375l2.71875 0l0 4.609375l4.0 0l0 2.453125l-4.0 0l0 8.90625q0 1.34375 0.5 1.984375q0.609375 0.703125 1.765625 0.703125q1.0 0 1.796875 -0.546875l0 2.65625q-0.484375 0.21875 -0.984375 0.3125q-0.484375 0.09375 -1.265625 0.09375zm7.2001343 -19.578125q-0.796875 0 -1.375 -0.578125q-0.578125 -0.578125 -0.578125 -1.375q0 -0.828125 0.578125 -1.390625q0.578125 -0.5625 1.375 -0.5625q0.84375 0 1.390625 0.5625q0.5625 0.5625 0.5625 1.390625q0 0.796875 -0.5625 1.375q-0.546875 0.578125 -1.390625 0.578125zm-1.34375 3.015625l2.71875 0l0 16.3125l-2.71875 0l0 -16.3125zm14.3376465 16.828125q-2.390625 0 -4.3125 -1.15625q-1.921875 -1.15625 -3.0 -3.140625q-1.0625 -1.984375 -1.0625 -4.375q0 -2.40625 1.0625 -4.390625q1.078125 -1.984375 3.0 -3.125q1.921875 -1.15625 4.3125 -1.15625q2.40625 0 4.328125 1.15625q1.921875 1.140625 2.984375 3.125q1.078125 1.984375 1.078125 4.390625q0 2.390625 -1.078125 4.375q-1.0625 1.984375 -2.984375 3.140625q-1.921875 1.15625 -4.328125 1.15625zm0 -2.46875q1.515625 0 2.796875 -0.75q1.296875 -0.75 2.078125 -2.15625q0.796875 -1.40625 0.796875 -3.296875q0 -1.890625 -0.796875 -3.296875q-0.78125 -1.40625 -2.078125 -2.15625q-1.28125 -0.765625 -2.796875 -0.765625q-1.5 0 -2.8125 0.765625q-1.3125 0.75 -2.09375 2.15625q-0.78125 1.40625 -0.78125 3.296875q0 1.890625 0.78125 3.296875q0.78125 1.40625 2.09375 2.15625q1.3125 0.75 2.8125 0.75zm11.236389 -14.359375l2.59375 0l0 2.390625l0.125 0q0.671875 -1.21875 2.140625 -2.0625q1.484375 -0.84375 3.140625 -0.84375q2.9375 0 4.484375 1.71875q1.5625 1.703125 1.5625 4.640625l0 10.46875l-2.71875 0l0 -10.046875q0 -2.265625 -1.09375 -3.296875q-1.078125 -1.03125 -2.96875 -1.03125q-1.3125 0 -2.359375 0.75q-1.03125 0.734375 -1.609375 1.9375q-0.578125 1.1875 -0.578125 2.5l0 9.1875l-2.71875 0l0 -16.3125zm15.936462 16.3125l0 0zm15.142761 0.515625q-2.625 0 -4.390625 -1.234375q-1.765625 -1.234375 -2.5 -3.15625l2.4375 -1.078125q0.609375 1.46875 1.796875 2.265625q1.203125 0.796875 2.65625 0.796875q1.53125 0 2.609375 -0.625q1.09375 -0.625 1.09375 -1.765625q0 -1.03125 -0.859375 -1.65625q-0.859375 -0.625 -2.71875 -1.078125l-1.984375 -0.5q-1.953125 -0.484375 -3.203125 -1.625q-1.25 -1.15625 -1.25 -2.984375q0 -1.40625 0.84375 -2.484375q0.859375 -1.078125 2.265625 -1.640625q1.40625 -0.578125 3.03125 -0.578125q2.15625 0 3.828125 0.9375q1.6875 0.921875 2.390625 2.578125l-2.375 1.09375q-1.09375 -2.1875 -3.875 -2.1875q-1.34375 0 -2.359375 0.625q-1.0 0.625 -1.0 1.59375q0 0.890625 0.703125 1.453125q0.703125 0.5625 2.109375 0.90625l2.375 0.609375q2.40625 0.609375 3.609375 1.8125q1.21875 1.203125 1.21875 2.921875q0 1.515625 -0.859375 2.65625q-0.859375 1.125 -2.34375 1.734375q-1.46875 0.609375 -3.25 0.609375zm16.85852 0q-2.34375 0 -4.203125 -1.125q-1.84375 -1.125 -2.890625 -3.078125q-1.03125 -1.96875 -1.03125 -4.4375q0 -2.34375 0.96875 -4.34375q0.984375 -2.0 2.78125 -3.171875q1.8125 -1.1875 4.15625 -1.1875q2.390625 0 4.140625 1.078125q1.765625 1.0625 2.703125 2.953125q0.953125 1.890625 0.953125 4.3125q0 0.390625 -0.0625 0.84375l-12.921875 0q0.09375 1.84375 0.890625 3.125q0.796875 1.28125 2.03125 1.921875q1.234375 0.640625 2.578125 0.640625q3.203125 0 4.828125 -2.9375l2.3125 1.109375q-1.03125 1.953125 -2.859375 3.125q-1.8125 1.171875 -4.375 1.171875zm4.703125 -10.40625q-0.0625 -1.015625 -0.578125 -2.03125q-0.515625 -1.03125 -1.609375 -1.734375q-1.078125 -0.71875 -2.734375 -0.71875q-1.921875 0 -3.265625 1.234375q-1.34375 1.234375 -1.765625 3.25l9.953125 0zm6.0473022 -6.421875l2.59375 0l0 2.609375l0.125 0q0.484375 -1.34375 1.859375 -2.21875q1.375 -0.875 2.875 -0.875q1.125 0 1.921875 0.3125l0 2.953125q-1.015625 -0.515625 -2.296875 -0.515625q-1.1875 0 -2.1875 0.671875q-0.984375 0.671875 -1.578125 1.8125q-0.59375 1.125 -0.59375 2.4375l0 9.125l-2.71875 0l0 -16.3125zm10.747131 0l2.921875 0l5.046875 13.109375l0.0625 0l5.125 -13.109375l2.84375 0l-6.65625 16.3125l-2.75 0l-6.59375 -16.3125zm19.838684 -3.015625q-0.796875 0 -1.375 -0.578125q-0.578125 -0.578125 -0.578125 -1.375q0 -0.828125 0.578125 -1.390625q0.578125 -0.5625 1.375 -0.5625q0.84375 0 1.390625 0.5625q0.5625 0.5625 0.5625 1.390625q0 0.796875 -0.5625 1.375q-0.546875 0.578125 -1.390625 0.578125zm-1.34375 3.015625l2.71875 0l0 16.3125l-2.71875 0l0 -16.3125zm14.212585 16.828125q-2.359375 0 -4.25 -1.140625q-1.890625 -1.140625 -2.953125 -3.109375q-1.046875 -1.96875 -1.046875 -4.421875q0 -2.46875 1.046875 -4.453125q1.0625 -1.984375 2.953125 -3.09375q1.890625 -1.125 4.25 -1.125q2.65625 0 4.46875 1.234375q1.8125 1.21875 2.578125 3.28125l-2.46875 1.015625q-0.609375 -1.5 -1.8125 -2.28125q-1.203125 -0.796875 -2.890625 -0.796875q-1.4375 0 -2.6875 0.796875q-1.25 0.78125 -2.0 2.1875q-0.75 1.40625 -0.75 3.234375q0 1.8125 0.75 3.234375q0.75 1.40625 2.0 2.1875q1.25 0.78125 2.6875 0.78125q1.734375 0 2.96875 -0.796875q1.25 -0.796875 1.859375 -2.28125l2.4375 1.03125q-0.828125 2.015625 -2.671875 3.265625q-1.84375 1.25 -4.46875 1.25zm17.187073 0q-2.34375 0 -4.203125 -1.125q-1.84375 -1.125 -2.890625 -3.078125q-1.03125 -1.96875 -1.03125 -4.4375q0 -2.34375 0.96875 -4.34375q0.984375 -2.0 2.78125 -3.171875q1.8125 -1.1875 4.15625 -1.1875q2.390625 0 4.140625 1.078125q1.765625 1.0625 2.703125 2.953125q0.953125 1.890625 0.953125 4.3125q0 0.390625 -0.0625 0.84375l-12.921875 0q0.09375 1.84375 0.890625 3.125q0.796875 1.28125 2.03125 1.921875q1.234375 0.640625 2.578125 0.640625q3.203125 0 4.828125 -2.9375l2.3125 1.109375q-1.03125 1.953125 -2.859375 3.125q-1.8125 1.171875 -4.375 1.171875zm4.703125 -10.40625q-0.0625 -1.015625 -0.578125 -2.03125q-0.515625 -1.03125 -1.609375 -1.734375q-1.078125 -0.71875 -2.734375 -0.71875q-1.921875 0 -3.265625 1.234375q-1.34375 1.234375 -1.765625 3.25l9.953125 0z" fill-rule="nonzero"/></g></svg>